<svg width="22" height="40" viewBox="0 0 22 40" fill="none" xmlns="http://www.w3.org/2000/svg">
<path d="M2.03084 21.1815H6.17058V38.2804C6.17058 38.6404 6.44057 38.9103 6.80054 38.9103H13.8201C14.1801 38.9103 14.4501 38.6404 14.4501 38.2804V21.2714H19.2198C19.4898 21.2714 19.7597 21.0015 19.8497 20.7315L20.5697 14.4319C20.5697 14.2519 20.5697 14.0719 20.3897 13.9819C20.2997 13.8919 20.1197 13.8019 19.9397 13.8019H14.4501V9.84216C14.4501 8.67223 15.08 8.04227 16.34 8.04227C16.5199 8.04227 19.9397 8.04227 19.9397 8.04227C20.2997 8.04227 20.5697 7.77229 20.5697 7.41231V1.65267C20.5697 1.29269 20.2997 1.02271 19.9397 1.02271H14.99C14.99 1.02271 14.9 1.02271 14.7201 1.02271C13.8201 1.02271 10.8503 1.20269 8.51043 3.36256C5.90059 5.79241 6.26058 8.67223 6.35057 9.1222V13.7119H2.03084C1.67086 13.7119 1.40088 13.9819 1.40088 14.3419V20.5515C1.49087 20.9115 1.76085 21.1815 2.03084 21.1815Z" stroke="#046DAD" stroke-miterlimit="10"/>
</svg>
