<svg width="55" height="42" viewBox="0 0 55 42" fill="none" xmlns="http://www.w3.org/2000/svg">
<path d="M48.3326 0.582764C48.2426 0.582764 48.2426 0.582764 48.3326 0.582764C48.2426 0.582764 48.2426 0.582764 48.3326 0.582764ZM48.3326 0.582764H6.48525C3.69542 0.582764 1.44556 2.83262 1.44556 5.62245V36.1305C1.44556 38.9204 3.69541 41.2602 6.57523 41.2602H48.4226C51.2125 41.2602 53.5523 39.0104 53.5523 36.1305V5.71244C53.3723 2.92262 51.0325 0.672758 48.3326 0.582764ZM43.203 37.9304H11.5249V19.3916L23.7642 31.6308C24.7541 32.6208 26.014 33.1607 27.3639 33.1607C28.7139 33.1607 29.9738 32.6208 30.9637 31.6308L43.203 19.3916V37.9304ZM27.3639 20.8315L10.535 4.00255H44.1929L27.3639 20.8315Z" stroke="#046DAD" stroke-miterlimit="10"/>
</svg>
