<svg width="42" height="44" viewBox="0 0 42 44" fill="none" xmlns="http://www.w3.org/2000/svg">
<path d="M35.7467 18.5917C35.8367 12.7421 30.7971 7.34245 24.5874 6.5325C24.4975 6.5325 24.3175 6.5325 24.2275 6.4425C23.9575 6.35251 23.5975 6.35251 23.2375 6.35251C21.9776 6.35251 21.6176 7.25245 21.5276 7.79242C21.4377 8.33239 21.5276 8.78236 21.7976 9.05234C22.2476 9.59231 22.9675 9.6823 23.5975 9.7723C23.7775 9.7723 23.9575 9.86229 24.0475 9.86229C29.6271 11.1222 31.517 13.1021 32.417 18.5917C32.417 18.7717 32.417 18.8617 32.417 19.0417C32.417 19.6717 32.507 21.1116 34.0369 21.1116C34.1269 21.1116 34.3068 21.1116 34.3968 21.1116C35.7467 20.9316 35.7467 19.6717 35.7467 19.0417C35.7467 18.9517 35.7467 18.7717 35.7467 18.5917ZM35.7467 18.5917C35.7467 18.6817 35.7467 18.5917 35.7467 18.5917Z" stroke="#046DAD" stroke-miterlimit="10"/>
<path d="M22.8775 4.37264C23.0575 4.37264 23.2375 4.37264 23.3275 4.37264C32.5069 5.81255 36.7366 10.1323 37.9066 19.4017C37.9066 19.5817 37.9066 19.7617 37.9066 19.9417C37.9066 20.6616 37.9066 22.1915 39.5265 22.1915H39.6165C40.1564 22.1915 40.5164 22.0115 40.7864 21.7416C41.3264 21.2016 41.2364 20.4816 41.2364 19.8517C41.2364 19.6717 41.2364 19.5817 41.2364 19.4017C41.3264 9.95229 33.1369 1.40282 23.7775 1.04285H23.6875H23.5975C23.5075 1.04285 23.4175 1.04285 23.2375 1.04285C23.0575 1.04285 22.8775 1.04285 22.7875 1.04285C21.2576 1.04285 20.9876 2.12278 20.9876 2.75274C20.7176 4.28265 22.1576 4.37264 22.8775 4.37264Z" stroke="#046DAD" stroke-miterlimit="10"/>
<path d="M37.3667 31.3709C37.1867 31.191 37.0067 31.101 36.8267 30.921C35.8368 30.111 34.7569 29.3911 33.7669 28.6711C33.5869 28.4911 33.3169 28.4011 33.1369 28.2211C31.787 27.3212 30.6171 26.8712 29.5372 26.8712C28.0073 26.8712 26.7474 27.6812 25.6674 29.3911C25.2175 30.111 24.5875 30.471 23.8675 30.471C23.4176 30.471 22.9676 30.381 22.4276 30.111C18.1979 28.2211 15.1381 25.2513 13.4282 21.2916C12.6182 19.4017 12.8882 18.1418 14.3281 17.1518C15.1381 16.6119 16.758 15.5319 16.578 13.4621C16.488 11.1222 11.3583 4.19263 9.19844 3.38268C8.29849 3.02271 7.30857 3.02271 6.31863 3.38268C3.88878 4.19263 2.08888 5.63254 1.18894 7.61242C0.37899 9.5023 0.378996 11.6622 1.27894 13.912C3.97877 20.4816 7.75853 26.2413 12.4382 30.921C17.1179 35.5107 22.7876 39.2904 29.3572 42.1703C29.9871 42.4403 30.6171 42.5302 31.0671 42.7102C31.2471 42.7102 31.3371 42.8002 31.4271 42.8002C31.5171 42.8002 31.517 42.8002 31.607 42.8002H31.697C34.8468 42.8002 38.5366 39.9204 39.7065 36.6806C40.6965 33.8908 38.8966 32.5409 37.3667 31.3709Z" stroke="#046DAD" stroke-miterlimit="10"/>
<path d="M24.2276 11.9322C23.6876 11.9322 22.6076 11.9322 22.1577 13.1021C21.9777 13.6421 21.9777 14.092 22.2477 14.452C22.6076 14.992 23.2376 15.172 23.7776 15.262C25.8475 15.6219 26.9274 16.7919 27.1074 18.8617C27.1974 19.8517 27.9173 20.5716 28.7273 20.5716C28.8173 20.5716 28.8173 20.5716 28.9072 20.5716C29.9872 20.4816 30.4372 19.6717 30.4372 18.3218C30.4372 16.8819 29.7172 15.262 28.4573 13.912C27.1974 12.6521 25.6675 11.8422 24.2276 11.9322Z" stroke="#046DAD" stroke-miterlimit="10"/>
</svg>
