<svg width="51" height="30" viewBox="0 0 51 30" fill="none" xmlns="http://www.w3.org/2000/svg">
<path d="M43.4752 18.8813C45.1851 20.5012 46.895 22.0311 48.4249 23.831C49.0548 24.6409 49.6848 25.4509 50.2248 26.3508C50.9447 27.7007 50.3148 29.1406 49.1448 29.2306H41.7653C39.8754 29.4106 38.3455 28.6007 37.0856 27.3407C36.0957 26.2608 35.1057 25.1809 34.1158 24.1009C33.7558 23.651 33.3058 23.291 32.7659 22.931C31.7759 22.3011 30.876 22.481 30.336 23.561C29.796 24.6409 29.6161 25.8108 29.5261 26.9808C29.4361 28.6907 28.8961 29.1406 27.1862 29.2306C23.4964 29.4106 19.8967 28.8706 16.6569 26.9808C13.777 25.3609 11.5272 23.021 9.54731 20.3212C5.76754 15.1915 2.88772 9.52185 0.277882 3.67221C-0.352078 2.41229 0.0978937 1.69233 1.5378 1.69233C3.96765 1.60234 6.30751 1.69233 8.73736 1.69233C9.72729 1.69233 10.3573 2.2323 10.7172 3.22224C11.9772 6.37204 13.5971 9.43185 15.5769 12.3117C16.1169 13.0316 16.6569 13.8416 17.3768 14.3815C18.1868 14.9215 18.9067 14.7415 19.2667 13.8416C19.5367 13.2116 19.6267 12.5817 19.7167 11.9517C19.8967 9.70184 19.8967 7.54197 19.6267 5.29211C19.4467 3.94219 18.6367 3.04225 17.2868 2.77227C16.5669 2.68227 16.6569 2.41229 17.0168 1.96232C17.6468 1.24236 18.1868 0.882385 19.2667 0.882385H27.5462C28.8961 1.15237 29.1661 1.69233 29.3461 3.04225V12.3117C29.3461 12.8516 29.6161 14.2916 30.516 14.6515C31.236 14.9215 31.7759 14.2916 32.1359 13.8416C34.1158 11.7717 35.5557 9.25186 36.8156 6.64203C37.3556 5.4721 37.8955 4.30217 38.3455 3.13225C38.7055 2.2323 39.2455 1.78233 40.2354 1.87232H48.2449C48.5149 1.87232 48.6949 1.87232 48.9649 1.87232C50.3148 2.14231 50.6747 2.68227 50.2248 4.03219C49.5948 6.10206 48.3349 7.81195 47.075 9.52185C45.7251 11.4117 44.2851 13.1216 43.0252 15.0115C41.8553 16.5414 41.9453 17.3514 43.4752 18.8813Z" stroke="#046DAD" stroke-miterlimit="10"/>
</svg>
