<svg width="51" height="51" viewBox="0 0 51 51" fill="none" xmlns="http://www.w3.org/2000/svg">
<path d="M37.2207 29.6113C37.1307 29.5213 33.5309 27.8114 32.901 27.5414C32.631 27.4514 32.361 27.3614 32.091 27.3614C31.6411 27.3614 31.1911 27.6314 30.9211 28.0814C30.5611 28.6214 29.4812 29.8813 29.1212 30.2413C29.1212 30.3313 29.0312 30.3312 28.9412 30.3312C28.9412 30.3312 28.3113 30.0613 28.2213 30.0613C24.3515 28.3514 21.4717 24.3916 21.1117 23.6717C21.0217 23.5817 21.0217 23.4917 21.0217 23.4917C21.0217 23.4017 21.2017 23.3117 21.2017 23.2217C21.3817 23.0417 21.6517 22.7717 21.8317 22.5017C21.9217 22.4117 22.0117 22.2318 22.1016 22.1418C22.3716 21.7818 22.5516 21.5118 22.6416 21.2418L22.7316 21.0618C23.0916 20.3419 22.8216 19.7119 22.6416 19.5319C22.5516 19.3519 21.0217 15.7522 20.9317 15.3022C20.5718 14.4022 20.0318 13.9523 19.3118 13.9523C19.2218 13.9523 19.3118 13.9523 19.0418 13.9523C18.6819 13.9523 16.882 14.2223 16.072 14.6722C15.1721 15.2122 13.7322 16.9221 13.7322 19.9819C13.7322 22.6817 15.4421 25.2916 16.162 26.2815C16.162 26.2815 16.252 26.3715 16.252 26.4615C19.1318 30.6012 22.6416 33.661 26.2414 35.101C29.6612 36.4509 31.3711 36.6309 32.271 36.6309C32.631 36.6309 32.991 36.6309 33.261 36.5409H33.4409C34.6109 36.4509 37.2207 35.101 37.8507 33.3911C38.3006 32.0411 38.4806 30.6912 38.1207 30.1513C38.0307 29.9713 37.6707 29.8813 37.2207 29.6113Z" stroke="#046DAD" stroke-miterlimit="10"/>
<path d="M25.8815 1.44305C12.5623 1.44305 1.763 12.1524 1.763 25.3816C1.763 29.6113 2.93291 33.841 5.09278 37.4408L0.953028 49.5901C0.863034 49.86 0.953039 50.04 1.13303 50.22C1.22302 50.31 1.40301 50.4 1.583 50.4C1.67299 50.4 1.67301 50.4 1.763 50.4L14.4522 46.3503C17.962 48.2401 21.8317 49.2301 25.8815 49.2301C39.2007 49.2301 50 38.5207 50 25.2916C49.91 12.1524 39.1107 1.44305 25.8815 1.44305ZM25.8815 44.2804C22.1017 44.2804 18.5019 43.2005 15.3521 41.1306C15.2621 41.0406 15.0822 41.0406 14.9922 41.0406C14.9022 41.0406 14.9022 41.0406 14.8122 41.0406L8.42258 43.1105L10.4924 37.0808C10.5824 36.9008 10.4924 36.6309 10.4024 36.5409C8.06259 33.3011 6.80266 29.4313 6.80266 25.4716C6.80266 15.0322 15.3521 6.57273 25.8815 6.57273C36.4108 6.57273 44.9603 15.0322 44.9603 25.4716C44.9603 35.7309 36.4108 44.2804 25.8815 44.2804Z" stroke="#046DAD" stroke-miterlimit="10"/>
</svg>
