<svg width="89" height="61" viewBox="0 0 89 61" fill="none" xmlns="http://www.w3.org/2000/svg">
<path d="M0.0527344 23.0316L88.9056 23.1261L73.0626 11.6261L67.8656 9.57811L62.0702 8.94797L59.519 6.3644L57.1252 5.95481L50.1014 0.0945208L46.6997 0L42.8571 2.77261L39.1089 0.40959L35.8018 0.0945208L34.8569 1.13425L36.8097 3.1822L33.7545 5.86029L36.0537 7.40413L26.3527 10.3973L33.849 2.2685L13.5019 14.2726L21.2502 12.7288L21.3447 13.7685L27.9905 12.6343L29.5969 14.0836L17.4075 20.5425L20.4628 16.6357L0.0527344 23.0316ZM28.652 18.4L37.6601 16.7617L42.8571 8.12879L47.8021 12.9493L54.6054 16.1315L49.3139 10.5863L49.2195 4.63152L57.9126 15.3124L59.6134 11.4055L69.7555 12.9493L82.0078 20.6685L24.4944 20.8576L28.652 18.4Z" fill="#ffffff"/>
<path d="M4.73531 31.994V35.2843C4.73531 35.4448 4.73531 35.7257 4.73531 36.1671C4.73531 36.5683 4.69519 37.0097 4.65506 37.4913C4.61494 37.9728 4.53468 38.4543 4.45443 38.9358C4.37418 39.4173 4.2538 39.8186 4.0933 40.1396C3.85254 40.6612 3.53153 41.1026 3.13027 41.4236C2.729 41.7446 2.24749 41.9051 1.68572 41.9051H1.60547V40.3001C1.92648 40.26 2.16724 40.1797 2.36787 40.0192C2.52837 39.8587 2.68888 39.6179 2.80926 39.3772C2.88951 39.1364 2.96976 38.8957 3.05001 38.5747C3.09014 38.2537 3.17039 37.9326 3.17039 37.5715C3.21052 37.2104 3.21052 36.8492 3.25064 36.448C3.25064 36.0467 3.25064 35.6856 3.25064 35.3646V30.5895H7.94541V41.9051H6.34036V31.994H4.73531Z" fill="#ffffff"/>
<path d="M8.1052 42.0256H6.21927V32.1545H4.89511V35.3245C4.89511 35.485 4.89511 35.7659 4.89511 36.2073C4.89511 36.6085 4.85498 37.0499 4.81485 37.5715C4.77473 38.0531 4.69447 38.5346 4.61422 39.0161C4.53397 39.4976 4.41359 39.8989 4.25308 40.26C3.9722 40.8218 3.65119 41.2632 3.24993 41.5842C2.84867 41.9052 2.32703 42.0657 1.72513 42.0657H1.48438V40.1798H1.60475C1.88564 40.1798 2.12639 40.0594 2.2869 39.939C2.4474 39.7785 2.60791 39.5779 2.68816 39.3371C2.76841 39.1365 2.84867 38.8556 2.88879 38.5747C2.92892 38.2537 3.00917 37.9327 3.00917 37.5715C3.0493 37.2104 3.0493 36.8493 3.08942 36.448C3.08942 36.0869 3.08942 35.6856 3.08942 35.3646V30.4291H8.06508V42.0256H8.1052ZM6.46003 41.7447H7.82432V30.71H3.41043V35.3245C3.41043 35.6856 3.41043 36.0468 3.41043 36.4079C3.41043 36.8091 3.37031 37.1703 3.33018 37.5314C3.29006 37.8926 3.24993 38.2537 3.2098 38.5747C3.12955 38.8957 3.0493 39.1766 2.96904 39.4174C2.84867 39.6982 2.68816 39.8989 2.48753 40.0995C2.32703 40.26 2.08627 40.3804 1.76526 40.4205V41.7848C2.2869 41.7848 2.72829 41.6243 3.08942 41.3434C3.45056 41.0625 3.77157 40.6211 4.01233 40.0995C4.17283 39.7785 4.25308 39.4174 4.33334 38.9358C4.41359 38.4543 4.49384 37.9728 4.53397 37.4913C4.57409 37.0098 4.61422 36.5684 4.61422 36.1671C4.61422 35.7659 4.61422 35.485 4.61422 35.2844V31.8736H6.46003V41.7447Z" fill="#ffffff"/>
<path d="M13.2816 41.9051V34.562H13.2415L11.1148 41.9051H9.50977V30.5895H11.1148V37.9326H11.1549L13.2816 30.5895H14.8867V41.9051H13.2816Z" fill="#ffffff"/>
<path d="M15.0465 42.0256H13.1605V35.4047L11.2345 42.0256H9.38867V30.4291H11.2746V37.09L13.1605 30.4291H15.0063V42.0256H15.0465ZM13.4013 41.7447H14.7656V30.71H13.4013L11.2345 38.0531H10.9536V30.71H9.5893V41.7447H10.9536L13.0803 34.4016H13.3612V41.7447H13.4013Z" fill="#ffffff"/>
<path d="M17.0939 41.9051V43.6707H15.6895V40.4606H16.5321C16.6124 40.26 16.7327 40.0192 16.813 39.7784C16.8932 39.5377 16.9735 39.2568 17.0537 38.9759C17.134 38.695 17.1741 38.4142 17.2142 38.0931C17.2544 37.7721 17.2945 37.4913 17.3346 37.2104C17.3748 36.9696 17.3748 36.7289 17.3748 36.448C17.3748 36.1671 17.4149 35.8862 17.4149 35.6053C17.4149 35.3244 17.4149 35.0034 17.455 34.7225C17.455 34.4417 17.455 34.1608 17.455 33.8799V30.5895H22.1097V40.4606H23.0326V43.6306H21.6281V41.865H17.0939V41.9051ZM18.9798 31.994V33.8398C18.9798 34.0003 18.9798 34.2009 18.9798 34.4818C18.9798 34.7627 18.9397 35.0837 18.9397 35.4047C18.8996 35.7257 18.8995 36.0467 18.8594 36.4078C18.8193 36.7289 18.8193 37.0499 18.7792 37.2906C18.739 37.4913 18.739 37.732 18.6588 38.0129C18.6187 38.2938 18.5384 38.5747 18.4983 38.8555C18.418 39.1364 18.3779 39.4173 18.2977 39.6982C18.2174 39.9791 18.1372 40.2198 18.0569 40.4606H20.5046V31.994H18.9798Z" fill="#ffffff"/>
<path d="M23.1522 43.7911H21.4669V42.0256H17.2135V43.7911H15.5684V40.3403H16.4511C16.5314 40.1798 16.6116 39.9791 16.6919 39.7384C16.7721 39.4976 16.8524 39.2167 16.8925 38.9358C16.9728 38.655 17.0129 38.3741 17.053 38.0531C17.0932 37.7722 17.1333 37.4512 17.1734 37.1703C17.2135 36.9697 17.2135 36.6888 17.2135 36.448C17.2135 36.1671 17.2537 35.8862 17.2537 35.6054C17.2537 35.3245 17.2537 35.0436 17.2938 34.7226C17.2938 34.4417 17.2938 34.1608 17.2938 33.8799V30.4291H22.2293V40.3001H23.1522V43.7911ZM21.7478 43.5102H22.8713V40.6211H21.9484V30.71H17.5747V33.8799C17.5747 34.1608 17.5747 34.4417 17.5747 34.7226C17.5747 35.0035 17.5747 35.3245 17.5345 35.6054C17.5345 35.8862 17.4944 36.1671 17.4944 36.448C17.4944 36.7289 17.4543 36.9697 17.4543 37.2104C17.4142 37.4913 17.374 37.8123 17.3339 38.0932C17.2938 38.4142 17.2135 38.6951 17.1734 38.976C17.0932 39.2569 17.0129 39.5377 16.9327 39.8186C16.8524 40.0995 16.7721 40.3403 16.6518 40.5409L16.6116 40.6211H15.8492V43.5102H16.9728V41.7447H21.7879V43.5102H21.7478ZM20.6243 40.581H17.8154L17.8957 40.3804C17.9759 40.1798 18.0562 39.8989 18.1364 39.6581C18.2167 39.3772 18.2969 39.0963 18.3371 38.8155C18.4173 38.5346 18.4574 38.2537 18.4976 37.9728C18.5377 37.6919 18.5778 37.4512 18.618 37.2505C18.6581 37.0098 18.6581 36.6888 18.6982 36.3678L18.7785 35.3646C18.8186 35.0436 18.8186 34.7226 18.8186 34.4417C18.8186 34.1608 18.8186 33.9602 18.8186 33.7997V31.7934H20.5841V40.581H20.6243ZM18.2167 40.3403H20.3434V32.1545H19.0995V33.8799C19.0995 34.0404 19.0995 34.2411 19.0995 34.522C19.0995 34.8028 19.0593 35.1238 19.0593 35.4449L18.9791 36.448C18.939 36.769 18.939 37.09 18.8988 37.3308C18.8587 37.5314 18.8587 37.7722 18.7785 38.0531C18.7383 38.3339 18.6581 38.6148 18.618 38.8957C18.5377 39.1766 18.4976 39.4575 18.4173 39.7384C18.3772 39.939 18.2969 40.1396 18.2167 40.3403Z" fill="#ffffff"/>
<path d="M23.8359 41.9051V30.5895H28.6511V32.1143H25.441V35.4448H28.2498V36.9696H25.441V40.3001H28.6511V41.9051H23.8359Z" fill="#ffffff"/>
<path d="M28.8109 42.0256H23.7148V30.4291H28.8109V32.2348H25.6008V35.2844H28.4096V37.09H25.6008V40.1396H28.8109V42.0256ZM23.9957 41.7447H28.5701V40.3804H25.36V36.769H28.1689V35.5251H25.36V31.9137H28.5701V30.6698H23.9957V41.7447Z" fill="#ffffff"/>
<path d="M29.7344 41.9051V30.5895H32.1821C32.6235 30.5895 33.0247 30.6297 33.3457 30.75C33.6667 30.8704 33.9878 31.0711 34.2686 31.3519C34.5495 31.6328 34.7502 31.994 34.8304 32.3952C34.9508 32.7965 34.9909 33.3181 34.9909 34.0003C34.9909 34.5219 34.9508 34.9232 34.9107 35.2843C34.8705 35.6454 34.71 35.9665 34.5495 36.2875C34.3088 36.6486 34.0279 36.9295 33.6667 37.1702C33.3056 37.3709 32.8241 37.4913 32.2222 37.4913H31.3795V41.9051H29.7344ZM31.3394 32.1143V35.9665H32.1018C32.4228 35.9665 32.7037 35.9263 32.8642 35.8059C33.0247 35.7257 33.1852 35.5652 33.2655 35.4047C33.3457 35.2442 33.3859 35.0436 33.426 34.8028C33.426 34.562 33.4661 34.3213 33.4661 34.0404C33.4661 33.7595 33.4661 33.5188 33.4661 33.278C33.4661 33.0372 33.426 32.8366 33.3056 32.636C33.2254 32.4755 33.105 32.315 32.9043 32.2347C32.7438 32.1545 32.5031 32.0742 32.1821 32.0742H31.3394V32.1143Z" fill="#ffffff"/>
<path d="M31.4992 42.0256H29.6133V30.4291H32.1814C32.6227 30.4291 33.0641 30.5093 33.3851 30.6297C33.7463 30.7501 34.0673 30.9908 34.3482 31.2717C34.6291 31.5927 34.8297 31.9539 34.9501 32.3551C35.0705 32.7564 35.1106 33.3182 35.1106 34.0003C35.1106 34.522 35.0704 34.9633 35.0303 35.3245C34.9501 35.6856 34.8297 36.0468 34.6291 36.3678C34.3883 36.769 34.0673 37.0499 33.7062 37.2907C33.3049 37.4913 32.7833 37.6117 32.1814 37.6117H31.4992V42.0256ZM29.854 41.7447H31.2183V37.3308H32.1814C32.7431 37.3308 33.2246 37.2505 33.5858 37.0499C33.9469 36.8493 34.2278 36.5684 34.4284 36.2474C34.6291 35.9665 34.7494 35.6455 34.7896 35.3245C34.8297 34.9633 34.8698 34.5621 34.8698 34.0404C34.8698 33.3583 34.8297 32.8367 34.7093 32.4755C34.6291 32.1144 34.4284 31.7532 34.1877 31.4724C33.9469 31.1915 33.6259 30.9908 33.3049 30.8705C32.9839 30.7501 32.5826 30.71 32.1814 30.71H29.8942V41.7447H29.854ZM32.1412 36.0869H31.2183V31.9539H32.1814C32.5425 31.9539 32.7833 31.994 32.9839 32.1144C33.1845 32.2348 33.345 32.3953 33.4253 32.5959C33.5055 32.7965 33.5858 33.0373 33.5858 33.278C33.5858 33.5188 33.5858 33.7596 33.5858 34.0404C33.5858 34.3213 33.5858 34.6022 33.5457 34.843C33.5457 35.0837 33.4654 35.3245 33.3851 35.485C33.3049 35.6856 33.1444 35.8461 32.9438 35.9264C32.7431 36.0467 32.5024 36.0869 32.1412 36.0869ZM31.4992 35.806H32.1412C32.4622 35.806 32.6629 35.7659 32.8234 35.6856C32.9839 35.6054 33.1043 35.485 33.1444 35.3646C33.2246 35.2041 33.2648 35.0436 33.2648 34.843C33.2648 34.6022 33.3049 34.3614 33.3049 34.0806C33.3049 33.7997 33.3049 33.5589 33.3049 33.3182C33.3049 33.1175 33.2648 32.9169 33.1845 32.7564C33.1043 32.5959 33.024 32.4755 32.8635 32.3953C32.703 32.315 32.5024 32.2749 32.1814 32.2749H31.4591V35.806H31.4992Z" fill="#ffffff"/>
<path d="M36.1944 30.5895H37.7995V35.2442H38.4014C38.9631 35.2442 39.4446 35.3244 39.8058 35.4849C40.1669 35.6454 40.4879 35.8461 40.7287 36.127C40.9694 36.4078 41.1299 36.7289 41.1701 37.09C41.2503 37.411 41.2905 37.8123 41.2905 38.2135V38.8555C41.2905 39.8587 41.0497 40.6211 40.5682 41.1427C40.0867 41.6644 39.3243 41.9453 38.2409 41.9453H36.1543V30.5895H36.1944ZM37.8396 36.6486V40.26H38.4014C38.7224 40.26 39.0033 40.2198 39.1638 40.0995C39.3644 40.0192 39.4848 39.8587 39.6051 39.6982C39.6854 39.5377 39.7657 39.3371 39.7657 39.0963C39.8058 38.8555 39.8058 38.6148 39.8058 38.3339C39.8058 38.053 39.8058 37.8123 39.7657 37.6116C39.7255 37.411 39.6854 37.2505 39.565 37.09C39.4446 36.9295 39.3243 36.8091 39.1236 36.7289C38.9631 36.6486 38.7224 36.6085 38.4014 36.6085H37.8396V36.6486ZM42.1331 41.9051V30.5895H43.7382V41.9051H42.1331Z" fill="#ffffff"/>
<path d="M43.8988 42.0256H42.0129V30.4291H43.8988V42.0256ZM42.2938 41.7447H43.6581V30.71H42.2938V41.7447ZM38.2812 42.0256H36.0742V30.4291H37.9602V35.0837H38.4417C39.0034 35.0837 39.5251 35.164 39.8862 35.3245C40.2875 35.485 40.6085 35.7257 40.8492 36.0066C41.09 36.3276 41.2906 36.6486 41.3308 37.0098C41.411 37.3709 41.4511 37.7321 41.4511 38.1734V38.8155C41.4511 39.8587 41.2104 40.6613 40.6887 41.1829C40.2072 41.7447 39.3646 42.0256 38.2812 42.0256ZM36.3551 41.7447H38.3213C39.3244 41.7447 40.0868 41.5039 40.5282 40.9823C40.9696 40.5008 41.2104 39.7384 41.2104 38.7753V38.1333C41.2104 37.7321 41.1703 37.3709 41.09 37.0098C41.0499 36.6888 40.8894 36.4079 40.6486 36.127C40.448 35.8862 40.127 35.6856 39.806 35.5251C39.4448 35.3646 39.0034 35.3245 38.4417 35.3245H37.7194V30.71H36.3551V41.7447ZM38.4015 40.4205H37.6793V36.5283H38.4015C38.7226 36.5283 38.9633 36.5684 39.1639 36.6486C39.3646 36.7289 39.5251 36.8493 39.6455 37.0499C39.7658 37.2104 39.806 37.411 39.8461 37.6518C39.8862 37.8524 39.8862 38.0932 39.8862 38.4142C39.8862 38.6951 39.8862 38.9358 39.8461 39.1766C39.806 39.4174 39.7658 39.6581 39.6455 39.8186C39.5251 40.0192 39.3646 40.1798 39.1639 40.26C39.0436 40.3403 38.7627 40.4205 38.4015 40.4205ZM37.9602 40.1396H38.4015C38.7226 40.1396 38.9633 40.0995 39.1238 40.0192C39.2843 39.939 39.4047 39.8186 39.485 39.6581C39.5652 39.4976 39.6053 39.3371 39.6455 39.0963C39.6856 38.8556 39.6856 38.6148 39.6856 38.3339C39.6856 38.0531 39.6856 37.8123 39.6455 37.6117C39.6053 37.411 39.5652 37.2907 39.485 37.1302C39.4047 37.0098 39.2843 36.8894 39.1238 36.8493C38.9633 36.769 38.7226 36.7289 38.4818 36.7289H38.0404V40.1396H37.9602Z" fill="#ffffff"/>
<path d="M48.2715 41.9051V30.5895H50.7192C51.1606 30.5895 51.5618 30.6297 51.8828 30.75C52.2039 30.8704 52.5249 31.0711 52.8058 31.3519C53.0866 31.6328 53.2873 31.994 53.3675 32.3952C53.4879 32.7965 53.528 33.3181 53.528 34.0003C53.528 34.5219 53.4879 34.9232 53.4478 35.2843C53.4076 35.6454 53.2471 35.9665 53.0866 36.2875C52.8459 36.6486 52.565 36.9295 52.2039 37.1702C51.8427 37.3709 51.3612 37.4913 50.7593 37.4913H49.9167V41.9051H48.2715ZM49.8765 32.1143V35.9665H50.6389C50.9599 35.9665 51.2408 35.9263 51.4013 35.8059C51.5618 35.7257 51.7223 35.5652 51.8026 35.4047C51.8828 35.2442 51.923 35.0436 51.9631 34.8028C51.9631 34.562 52.0032 34.3213 52.0032 34.0404C52.0032 33.7595 52.0032 33.5188 52.0032 33.278C52.0032 33.0372 51.9631 32.8366 51.8427 32.636C51.7625 32.4755 51.6421 32.315 51.4415 32.2347C51.2809 32.1545 51.0402 32.0742 50.7192 32.0742H49.8765V32.1143Z" fill="#ffffff"/>
<path d="M49.9973 42.0256H48.1113V30.4291H50.6794C51.1208 30.4291 51.5622 30.5093 51.8832 30.6297C52.2443 30.7501 52.5653 30.9908 52.8462 31.2717C53.1271 31.5927 53.3277 31.9539 53.4481 32.3551C53.5685 32.7564 53.6086 33.3182 53.6086 34.0003C53.6086 34.522 53.5685 34.9633 53.5284 35.3245C53.4481 35.6856 53.3277 36.0468 53.1271 36.3678C52.8864 36.769 52.5653 37.0499 52.2042 37.2907C51.8029 37.4913 51.2813 37.6117 50.6794 37.6117H49.9973V42.0256ZM48.3922 41.7447H49.7565V37.3308H50.7195C51.2813 37.3308 51.7628 37.2505 52.124 37.0499C52.4851 36.8493 52.766 36.5684 52.9666 36.2474C53.1672 35.9665 53.2876 35.6455 53.3277 35.3245C53.3679 34.9633 53.408 34.5621 53.408 34.0404C53.408 33.3583 53.3679 32.8367 53.2475 32.4755C53.1672 32.1144 52.9666 31.7532 52.7258 31.4724C52.4851 31.1915 52.1641 30.9908 51.8431 30.8705C51.5221 30.7501 51.1208 30.71 50.7195 30.71H48.4323V41.7447H48.3922ZM50.6393 36.0869H49.7164V31.9539H50.6794C51.0405 31.9539 51.2813 31.994 51.4819 32.1144C51.6826 32.2348 51.8431 32.3953 51.9233 32.5959C52.0036 32.7965 52.0838 33.0373 52.0838 33.278C52.0838 33.5188 52.0838 33.7596 52.0838 34.0404C52.0838 34.3213 52.0838 34.6022 52.0437 34.843C52.0437 35.0837 51.9634 35.3245 51.8832 35.485C51.8029 35.6856 51.6424 35.8461 51.4418 35.9264C51.2813 36.0467 51.0004 36.0869 50.6393 36.0869ZM49.9973 35.806H50.6393C50.9603 35.806 51.1609 35.7659 51.3214 35.6856C51.4819 35.6054 51.6023 35.485 51.6424 35.3646C51.7227 35.2041 51.7628 35.0436 51.7628 34.843C51.7628 34.6022 51.8029 34.3614 51.8029 34.0806C51.8029 33.7997 51.8029 33.5589 51.8029 33.3182C51.8029 33.1175 51.7628 32.9169 51.6826 32.7564C51.6023 32.5959 51.5221 32.4755 51.3615 32.3953C51.201 32.315 51.0004 32.2749 50.6794 32.2749H49.9571V35.806H49.9973Z" fill="#ffffff"/>
<path d="M54.6113 33.2382C54.6113 32.7968 54.6916 32.3955 54.8521 32.0344C55.0126 31.6733 55.2132 31.3924 55.4941 31.1516C55.7349 30.9109 56.0559 30.7504 56.3769 30.63C56.6979 30.5096 57.0189 30.4695 57.3399 30.4695C57.6609 30.4695 57.9819 30.5096 58.3029 30.63C58.624 30.7504 58.9048 30.9109 59.1857 31.1516C59.4265 31.3924 59.6271 31.6733 59.7876 32.0344C59.9481 32.3955 60.0284 32.7968 60.0284 33.2382V39.217C60.0284 39.6985 59.9481 40.0998 59.7876 40.4609C59.6271 40.7819 59.4265 41.0628 59.1857 41.3036C58.9048 41.5443 58.624 41.7048 58.3029 41.8252C57.9819 41.9456 57.6609 41.9857 57.3399 41.9857C57.0189 41.9857 56.6979 41.9456 56.3769 41.8252C56.0559 41.7048 55.775 41.5443 55.4941 41.3036C55.2132 41.0628 55.0126 40.7819 54.8521 40.4609C54.6916 40.1399 54.6113 39.6985 54.6113 39.217V33.2382ZM56.2565 39.217C56.2565 39.6183 56.3769 39.8991 56.5775 40.0998C56.7781 40.3004 57.059 40.3807 57.3399 40.3807C57.6208 40.3807 57.9017 40.3004 58.1023 40.0998C58.3029 39.8991 58.4233 39.6183 58.4233 39.217V33.2382C58.4233 32.8369 58.3029 32.556 58.1023 32.3554C57.9017 32.1548 57.6208 32.0745 57.3399 32.0745C57.059 32.0745 56.7781 32.1548 56.5775 32.3554C56.3769 32.556 56.2565 32.8369 56.2565 33.2382V39.217Z" fill="#ffffff"/>
<path d="M57.3403 42.1057C56.9791 42.1057 56.6581 42.0254 56.297 41.905C55.976 41.7847 55.655 41.584 55.3741 41.3433C55.0932 41.1025 54.8926 40.8216 54.6919 40.4605C54.5314 40.0994 54.4512 39.658 54.4512 39.1765V33.2378C54.4512 32.7563 54.5314 32.355 54.6919 31.9537C54.8524 31.5926 55.0932 31.2716 55.3741 31.0308C55.655 30.7901 55.9358 30.6296 56.297 30.5092C56.9791 30.2684 57.6613 30.2684 58.3434 30.5092C58.6644 30.6296 58.9854 30.8302 59.2663 31.0308C59.5472 31.2716 59.7478 31.5926 59.9083 31.9537C60.0688 32.3149 60.1491 32.7563 60.1491 33.2378V39.2166C60.1491 39.6981 60.0688 40.1395 59.9083 40.5006C59.7478 40.8618 59.5071 41.1426 59.2663 41.3834C58.9854 41.6242 58.6644 41.8248 58.3434 41.9452C58.0224 42.0655 57.7014 42.1057 57.3403 42.1057ZM57.3403 30.6296C57.0193 30.6296 56.6982 30.6697 56.4174 30.7901C56.0964 30.9104 55.8155 31.0709 55.5747 31.2716C55.334 31.4722 55.1333 31.7531 54.9728 32.1142C54.8123 32.4352 54.7321 32.8365 54.7321 33.2779V39.2567C54.7321 39.6981 54.8123 40.0994 54.9728 40.4204C55.1333 40.7414 55.334 41.0223 55.5747 41.2229C55.8155 41.4636 56.0964 41.6241 56.4174 41.7044C57.0193 41.9452 57.6613 41.9452 58.2632 41.7044C58.5842 41.584 58.8651 41.4235 59.1058 41.2229C59.3466 41.0223 59.5472 40.7414 59.7077 40.4204C59.8682 40.0994 59.9485 39.6981 59.9485 39.2567V33.2378C59.9485 32.7964 59.8682 32.4352 59.7077 32.0741C59.5472 31.7531 59.3466 31.4722 59.1058 31.2315C58.8651 31.0308 58.5842 30.8703 58.2632 30.7499C57.9823 30.6697 57.6613 30.6296 57.3403 30.6296ZM57.3403 40.5006C57.0193 40.5006 56.7384 40.3802 56.4976 40.1796C56.2569 39.979 56.1365 39.658 56.1365 39.2166V33.2378C56.1365 32.7964 56.2569 32.4754 56.4976 32.2747C56.7384 32.0741 57.0193 31.9537 57.3403 31.9537C57.6613 31.9537 57.9422 32.0741 58.1829 32.2747C58.4237 32.4754 58.5441 32.7964 58.5441 33.2378V39.2166C58.5441 39.658 58.4237 39.979 58.1829 40.1796C57.9823 40.3802 57.6613 40.5006 57.3403 40.5006ZM57.3403 32.2346C57.0594 32.2346 56.8587 32.3149 56.6581 32.4754C56.4575 32.6359 56.3772 32.8766 56.3772 33.2378V39.2166C56.3772 39.5777 56.4575 39.8185 56.6581 39.979C56.8587 40.1395 57.0594 40.2197 57.3403 40.2197C57.6211 40.2197 57.8218 40.1395 58.0224 39.979C58.223 39.8185 58.3033 39.5777 58.3033 39.2166V33.2378C58.3033 32.8766 58.223 32.6359 58.0224 32.4754C57.8218 32.3149 57.6211 32.2346 57.3403 32.2346Z" fill="#ffffff"/>
<path d="M66.65 38.655V39.3371C66.65 39.6982 66.5698 40.0192 66.4494 40.3403C66.329 40.6613 66.1284 40.9422 65.8876 41.1829C65.6468 41.4237 65.366 41.6243 65.0851 41.7447C64.7641 41.9052 64.4431 41.9453 64.0819 41.9453C63.7609 41.9453 63.48 41.9052 63.159 41.8249C62.838 41.7447 62.5571 41.5842 62.3164 41.3835C62.0756 41.1829 61.8349 40.902 61.6743 40.581C61.5138 40.26 61.4336 39.8186 61.4336 39.297V33.0774C61.4336 32.7163 61.5138 32.3551 61.6342 32.0341C61.7546 31.7131 61.9552 31.4322 62.1559 31.1915C62.3966 30.9507 62.6775 30.7902 62.9985 30.6297C63.3195 30.5093 63.6807 30.4291 64.0819 30.4291C64.8443 30.4291 65.4462 30.6698 65.9277 31.1915C66.1685 31.4322 66.329 31.7131 66.4895 32.0743C66.6099 32.3953 66.6901 32.7564 66.6901 33.1577V33.7997H65.0851V33.278C65.0851 32.957 65.0048 32.6761 64.8042 32.4354C64.6437 32.1946 64.3628 32.0743 64.0819 32.0743C63.6807 32.0743 63.3998 32.1946 63.2794 32.4354C63.159 32.6761 63.0788 32.9972 63.0788 33.3984V39.1766C63.0788 39.4976 63.159 39.7785 63.2794 40.0192C63.4399 40.26 63.6807 40.3403 64.0418 40.3403C64.1622 40.3403 64.2424 40.3403 64.4029 40.3001C64.5233 40.26 64.6437 40.2199 64.7641 40.0995C64.8443 40.0192 64.9246 39.8989 65.0048 39.7384C65.0851 39.5779 65.0851 39.4174 65.0851 39.1766V38.6148H66.65V38.655Z" fill="#ffffff"/>
<path d="M64.0823 42.1058C63.7613 42.1058 63.4403 42.0657 63.1192 41.9854C62.7982 41.9052 62.4772 41.7447 62.1963 41.5039C61.9155 41.2632 61.7148 40.9823 61.5142 40.6211C61.3537 40.26 61.2734 39.8186 61.2734 39.297V33.0774C61.2734 32.6761 61.3537 32.315 61.4741 31.994C61.5944 31.673 61.7951 31.352 62.0358 31.1112C62.2766 30.8705 62.5575 30.6698 62.9186 30.5494C63.2396 30.4291 63.6409 30.3488 64.0422 30.3488C64.8447 30.3488 65.4867 30.6297 66.0083 31.1513C66.2491 31.3921 66.4497 31.7131 66.5701 32.0742C66.6905 32.4354 66.7707 32.7965 66.7707 33.1978V33.9602H64.8848V33.278C64.8848 32.9971 64.8046 32.7564 64.644 32.5156C64.4835 32.315 64.2829 32.2347 64.002 32.2347C63.6409 32.2347 63.4403 32.315 63.3199 32.5558C63.1995 32.7965 63.1192 33.0774 63.1192 33.4385V39.2167C63.1192 39.4976 63.1995 39.7785 63.3199 39.9791C63.4403 40.1797 63.6409 40.26 63.9619 40.26C64.0422 40.26 64.1625 40.26 64.2829 40.2199C64.4033 40.1797 64.4835 40.1396 64.5638 40.0594C64.644 39.9791 64.7243 39.8989 64.7644 39.7785C64.8046 39.6581 64.8447 39.4976 64.8447 39.2568V38.5747H66.7306V39.4173C66.7306 39.7785 66.6504 40.1396 66.53 40.4606C66.4096 40.7816 66.209 41.0625 65.9682 41.3434C65.7275 41.5842 65.4466 41.7848 65.1256 41.9453C64.8045 42.0657 64.4434 42.1058 64.0823 42.1058ZM64.0422 30.6297C63.681 30.6297 63.3199 30.71 63.039 30.8303C62.718 30.9507 62.4772 31.1112 62.2365 31.352C62.0358 31.5526 61.8352 31.8335 61.7148 32.1144C61.5944 32.3953 61.5142 32.7564 61.5142 33.0774V39.297C61.5142 39.7785 61.5945 40.2199 61.755 40.5008C61.9155 40.8218 62.1161 41.0625 62.3569 41.2632C62.5976 41.4638 62.8785 41.5842 63.1594 41.6644C63.8014 41.8249 64.4835 41.8249 65.0052 41.5842C65.2861 41.4638 65.567 41.2632 65.7676 41.0224C65.9682 40.7816 66.1688 40.5409 66.2892 40.2199C66.4096 39.939 66.4898 39.618 66.4898 39.297V38.7352H65.1256V39.1365C65.1256 39.3772 65.0854 39.5778 65.0052 39.7384C64.9249 39.8989 64.8447 40.0192 64.7243 40.1396C64.6039 40.2199 64.4835 40.3001 64.323 40.3402C64.2027 40.3804 64.0422 40.4205 63.9218 40.4205C63.5205 40.4205 63.1995 40.3001 63.039 40.0192C62.8785 39.7785 62.7982 39.4575 62.7982 39.1365V33.3984C62.7982 32.9971 62.8785 32.636 62.9989 32.3953C63.1594 32.1144 63.4804 31.9539 63.9218 31.9539C64.2829 31.9539 64.5638 32.0742 64.7644 32.3551C64.9651 32.5959 65.0453 32.9169 65.0453 33.278V33.6793H66.4096V33.1978C66.4096 32.8366 66.3293 32.4755 66.209 32.1545C66.0886 31.8335 65.9281 31.5526 65.6873 31.3118C65.3663 30.8303 64.7644 30.6297 64.0422 30.6297Z" fill="#ffffff"/>
<path d="M72.9488 38.655V39.3371C72.9488 39.6982 72.8686 40.0192 72.7482 40.3403C72.6278 40.6613 72.4272 40.9422 72.1864 41.1829C71.9457 41.4237 71.6648 41.6243 71.3839 41.7447C71.0629 41.9052 70.7419 41.9453 70.3808 41.9453C70.0597 41.9453 69.7789 41.9052 69.4579 41.8249C69.1368 41.7447 68.856 41.5842 68.6152 41.3835C68.3744 41.1829 68.1337 40.902 67.9732 40.581C67.8127 40.26 67.7324 39.8186 67.7324 39.297V33.0774C67.7324 32.7163 67.8127 32.3551 67.9331 32.0341C68.0534 31.7131 68.2541 31.4322 68.4547 31.1915C68.6955 30.9507 68.9763 30.7902 69.2973 30.6297C69.6184 30.5093 69.9795 30.4291 70.3808 30.4291C71.1432 30.4291 71.745 30.6698 72.2266 31.1915C72.4673 31.4322 72.6278 31.7131 72.7883 32.0743C72.9087 32.3953 72.989 32.7564 72.989 33.1577V33.7997H71.3839V33.278C71.3839 32.957 71.3037 32.6761 71.103 32.4354C70.9425 32.1946 70.6616 32.0743 70.3808 32.0743C69.9795 32.0743 69.6986 32.1946 69.5782 32.4354C69.4579 32.6761 69.3776 32.9972 69.3776 33.3984V39.1766C69.3776 39.4976 69.4579 39.7785 69.5782 40.0192C69.7387 40.26 69.9795 40.3403 70.3406 40.3403C70.461 40.3403 70.5413 40.3403 70.7018 40.3001C70.8221 40.26 70.9425 40.2199 71.0629 40.0995C71.1432 40.0192 71.2234 39.8989 71.3037 39.7384C71.3839 39.5779 71.3839 39.4174 71.3839 39.1766V38.6148H72.9488V38.655Z" fill="#ffffff"/>
<path d="M70.3811 42.1058C70.0601 42.1058 69.7391 42.0657 69.4181 41.9854C69.0971 41.9052 68.776 41.7447 68.4952 41.5039C68.2143 41.2632 68.0137 40.9823 67.813 40.6211C67.6525 40.26 67.5723 39.8186 67.5723 39.297V33.0774C67.5723 32.6761 67.6525 32.315 67.7729 31.994C67.8933 31.673 68.0939 31.352 68.3347 31.1112C68.5754 30.8705 68.8563 30.6698 69.2174 30.5494C69.5384 30.4291 69.9397 30.3488 70.341 30.3488C71.1435 30.3488 71.7855 30.6297 72.3072 31.1513C72.5479 31.3921 72.7485 31.7131 72.8689 32.0742C72.9893 32.4354 73.0696 32.7965 73.0696 33.1978V33.9602H71.1836V33.278C71.1836 32.9971 71.1034 32.7564 70.9429 32.5156C70.7824 32.315 70.5817 32.2347 70.3008 32.2347C69.9397 32.2347 69.7391 32.315 69.6187 32.5558C69.4983 32.7965 69.4181 33.0774 69.4181 33.4385V39.2167C69.4181 39.4976 69.4983 39.7785 69.6187 39.9791C69.7391 40.1797 69.9397 40.26 70.2607 40.26C70.341 40.26 70.4614 40.26 70.5817 40.2199C70.7021 40.1797 70.7824 40.1396 70.8626 40.0594C70.9429 39.9791 71.0231 39.8989 71.0632 39.7785C71.1034 39.6581 71.1435 39.4976 71.1435 39.2568V38.5747H73.0294V39.4173C73.0294 39.7785 72.9492 40.1396 72.8288 40.4606C72.7084 40.7816 72.5078 41.0625 72.267 41.3434C72.0263 41.5842 71.7454 41.7848 71.4244 41.9453C71.1435 42.0657 70.7824 42.1058 70.3811 42.1058ZM70.341 30.6297C69.9798 30.6297 69.6187 30.71 69.3378 30.8303C69.0168 30.9507 68.7761 31.1112 68.5353 31.352C68.3347 31.5526 68.134 31.8335 68.0137 32.1144C67.8933 32.3953 67.813 32.7564 67.813 33.0774V39.297C67.813 39.7785 67.8933 40.2199 68.0538 40.5008C68.2143 40.8218 68.4149 41.0625 68.6557 41.2632C68.8964 41.4638 69.1773 41.5842 69.4582 41.6644C70.1002 41.8249 70.7824 41.8249 71.304 41.5842C71.5849 41.4638 71.8658 41.2632 72.0664 41.0224C72.267 40.7816 72.4677 40.5409 72.588 40.2199C72.7084 39.939 72.7887 39.618 72.7887 39.297V38.7352H71.4244V39.1365C71.4244 39.3772 71.3843 39.5778 71.304 39.7384C71.2237 39.8989 71.1435 40.0192 71.0231 40.1396C70.9027 40.2199 70.7824 40.3001 70.6219 40.3402C70.5015 40.3804 70.341 40.4205 70.2206 40.4205C69.8193 40.4205 69.4983 40.3001 69.3378 40.0192C69.1773 39.7785 69.0971 39.4575 69.0971 39.1365V33.3984C69.0971 32.9971 69.1773 32.636 69.2977 32.3953C69.4582 32.1144 69.7792 31.9539 70.2206 31.9539C70.5817 31.9539 70.8626 32.0742 71.0632 32.3551C71.2639 32.5959 71.3441 32.9169 71.3441 33.278V33.6793H72.7084V33.1978C72.7084 32.8366 72.6282 32.4755 72.5078 32.1545C72.3874 31.8335 72.2269 31.5526 71.9862 31.3118C71.6651 30.8303 71.0632 30.6297 70.341 30.6297Z" fill="#ffffff"/>
<path d="M78.0863 41.9051V34.562H78.0462L75.9195 41.9051H74.3145V30.5895H75.9195V37.9326H75.9596L78.0863 30.5895H79.6914V41.9051H78.0863Z" fill="#ffffff"/>
<path d="M79.8101 42.0256H77.9242V35.4047L75.9982 42.0256H74.1523V30.4291H76.0383V37.09L77.9643 30.4291H79.8101V42.0256ZM78.2051 41.7447H79.5694V30.71H78.165L76.0383 38.0531H75.7574V30.71H74.3931V41.7447H75.7574L77.8841 34.4016H78.165V41.7447H78.2051Z" fill="#ffffff"/>
<path d="M84.9876 41.9051V34.562L82.8609 41.9051H81.2559V30.5895H82.8609V37.9326H82.901L85.0277 30.5895H86.6328V41.9051H84.9876Z" fill="#ffffff"/>
<path d="M86.7535 42.0256H84.8676V35.4047L82.9415 42.0256H81.0957V30.4291H82.9816V37.09L84.9077 30.4291H86.7535V42.0256ZM85.1484 41.7447H86.5127V30.71H85.1484L82.9816 38.0531H82.7008V30.71H81.3365V41.7447H82.7008L84.8274 34.4016H85.1083V41.7447H85.1484Z" fill="#ffffff"/>
<path d="M6.66171 50.9729C6.5012 50.9729 6.38082 50.9729 6.30057 51.0131C6.22032 51.0532 6.09994 51.1334 6.01969 51.2137C5.93943 51.294 5.85918 51.4143 5.85918 51.5748C5.81905 51.6952 5.81905 51.8557 5.77893 52.0162L5.61842 53.3404C5.61842 53.4608 5.5783 53.6213 5.5783 53.7417C5.53817 53.862 5.53817 53.9423 5.49805 54.0627C5.45792 54.183 5.45792 54.2633 5.41779 54.3435C5.33754 54.5041 5.25729 54.6244 5.17703 54.7448C5.09678 54.8652 5.01653 54.9454 4.89615 55.0257L6.58145 60.7637H4.93628L3.53186 55.7078H2.60896V60.7637H1.00391V49.4481H2.60896V54.3034H3.1306C3.33123 54.3034 3.49173 54.2633 3.57198 54.2232C3.69236 54.183 3.77262 54.1028 3.85287 53.9824C3.93312 53.9022 3.97325 53.7818 4.01337 53.6614C4.0535 53.541 4.0535 53.4206 4.09363 53.2601L4.25413 51.8958C4.25413 51.8557 4.29426 51.7755 4.29426 51.615C4.29426 51.4946 4.33438 51.3341 4.37451 51.1736C4.41464 51.0131 4.49489 50.8124 4.53502 50.6519C4.61527 50.4914 4.69552 50.2908 4.8159 50.1303C5.01653 49.8895 5.25729 49.6889 5.53817 49.5685C5.81905 49.4481 6.18019 49.408 6.58145 49.408V50.9729H6.66171Z" fill="#ffffff"/>
<path d="M9.99117 50.8531V54.1435C9.99117 54.304 9.99117 54.5849 9.99117 55.0263C9.99117 55.4275 9.95105 55.8689 9.91092 56.3504C9.8708 56.8319 9.79054 57.3134 9.71029 57.795C9.63004 58.2765 9.50966 58.6777 9.34916 58.9987C9.1084 59.5204 8.78739 59.9618 8.38612 60.2828C7.98486 60.6038 7.50335 60.7643 6.94158 60.7643H6.86133V59.1593C7.18234 59.1191 7.4231 59.0389 7.62373 58.8784C7.78423 58.7179 7.94474 58.4771 8.06512 58.2364C8.14537 57.9956 8.22562 57.7548 8.30587 57.4338C8.346 57.1128 8.42625 56.7918 8.42625 56.4307C8.46638 56.0695 8.46638 55.7084 8.5065 55.3071C8.5065 54.9059 8.5065 54.5447 8.5065 54.2237V49.4888H13.2013V60.8044H11.5962V50.9334H9.99117V50.8531Z" fill="#ffffff"/>
<path d="M14.9265 59.2392C15.087 59.2392 15.2475 59.2392 15.4481 59.1991C15.6487 59.159 15.7691 59.0787 15.8895 58.9985C15.9697 58.9182 16.05 58.7978 16.1704 58.5972C16.2908 58.3966 16.371 58.1558 16.4513 57.7947L16.6118 57.1928L14.1641 49.4484H15.8895L17.4143 54.7852H17.4544L18.6582 49.4484H20.3836L18.0162 58.0354C17.8557 58.5571 17.6952 58.9985 17.5347 59.3997C17.3742 59.801 17.1334 60.122 16.8124 60.3628C16.5716 60.5634 16.2908 60.7239 16.0099 60.764C15.729 60.8042 15.408 60.8443 15.087 60.8443H14.8462V59.2392H14.9265Z" fill="#ffffff"/>
<path d="M21.1465 49.4484H25.8011V50.9732H22.7917V54.1031H23.4337C23.9954 54.1031 24.477 54.1833 24.8381 54.3438C25.1992 54.5043 25.5202 54.705 25.761 54.9858C26.0018 55.2667 26.1623 55.5877 26.2024 55.9489C26.2826 56.31 26.3228 56.6711 26.3228 57.0724V57.7144C26.3228 58.7176 26.082 59.48 25.6005 60.0016C25.119 60.5233 24.3566 60.8042 23.2732 60.8042H21.1465V49.4484ZM22.7917 55.5075V59.1189H23.3936C23.7146 59.1189 23.9954 59.0787 24.156 58.9583C24.3566 58.8781 24.477 58.7176 24.5973 58.5571C24.6776 58.3966 24.7578 58.1959 24.7578 57.9552C24.798 57.7144 24.798 57.4737 24.798 57.1928C24.798 56.9119 24.798 56.6712 24.7578 56.4304C24.7177 56.2298 24.6375 56.0291 24.5572 55.9088C24.4368 55.7884 24.3165 55.668 24.156 55.5877C23.9954 55.5075 23.7547 55.4674 23.4738 55.4674H22.7917V55.5075Z" fill="#ffffff"/>
<path d="M33.1847 53.1409V54.746L31.5797 56.351L33.1847 57.9561V59.5611L29.9746 56.351L33.1847 53.1409ZM36.1139 53.1409V54.746L34.5089 56.351L36.1139 57.9561V59.5611L32.9038 56.351L36.1139 53.1409Z" fill="#ffffff"/>
<path d="M38.7212 54.304H40.7275V52.2977C40.7275 51.8964 40.6472 51.6156 40.5269 51.3347C40.3663 51.0939 40.1256 50.9735 39.7243 50.9735C39.4033 50.9735 39.1626 51.0939 39.0021 51.3347C38.8416 51.5754 38.7613 51.8563 38.7613 52.1773V52.699H37.1562V52.2175C37.1562 51.8162 37.2365 51.4551 37.3569 51.0538C37.5174 50.6525 37.6779 50.3716 37.9186 50.0908C38.1594 49.85 38.4403 49.6494 38.7613 49.529C39.0823 49.4086 39.4033 49.3284 39.7645 49.3284C40.1256 49.3284 40.4867 49.4086 40.8077 49.529C41.1287 49.6494 41.4096 49.85 41.6504 50.0908C41.8911 50.3315 42.0517 50.6124 42.172 50.9334C42.2924 51.2544 42.3727 51.6156 42.3727 51.9767V58.0358C42.3727 58.5574 42.2924 58.9988 42.1319 59.4001C41.9714 59.8013 41.7306 60.0822 41.4899 60.2828C41.2491 60.4835 40.9682 60.644 40.6472 60.7242C40.3262 60.8045 40.0052 60.8446 39.7243 60.8446C39.3632 60.8446 39.0422 60.7643 38.7212 60.644C38.4002 60.5236 38.1193 60.323 37.8785 60.0822C37.6378 59.8414 37.4773 59.5606 37.3569 59.2395C37.2365 58.9185 37.1562 58.5975 37.1562 58.2364V57.5542H38.7613V58.116C38.7613 58.3568 38.8014 58.5173 38.8416 58.6778C38.8817 58.8383 38.9619 58.9587 39.0823 59.0389C39.2027 59.1192 39.2829 59.1994 39.4434 59.2395C39.5638 59.2797 39.6842 59.2797 39.8046 59.2797C40.1657 59.2797 40.4466 59.1593 40.567 58.9185C40.7275 58.6778 40.8077 58.3969 40.8077 58.0759V55.7084H38.8014V54.304H38.7212Z" fill="#ffffff"/>
<path d="M46.0244 50.8531V54.1435C46.0244 54.304 46.0244 54.5849 46.0244 55.0263C46.0244 55.4275 45.9842 55.8689 45.9441 56.3504C45.904 56.8319 45.8237 57.3134 45.7435 57.795C45.6632 58.2765 45.5429 58.6777 45.3824 58.9987C45.1416 59.5204 44.8206 59.9618 44.4193 60.2828C44.0181 60.6038 43.5365 60.7643 42.9748 60.7643H42.8945V59.1593C43.2155 59.1191 43.4563 59.0389 43.6569 58.8784C43.8174 58.7179 43.9779 58.4771 44.0983 58.2364C44.1786 57.9956 44.2588 57.7548 44.3391 57.4338C44.3792 57.1128 44.4595 56.7918 44.4595 56.4307C44.4996 56.0695 44.4996 55.7084 44.5397 55.3071C44.5397 54.9059 44.5397 54.5447 44.5397 54.2237V49.4888H49.2345V60.8044H47.6294V50.9334H46.0244V50.8531Z" fill="#ffffff"/>
<path d="M50.7598 49.4484H52.3648V54.1031H52.9667C53.5285 54.1031 54.01 54.1833 54.3711 54.3438C54.7323 54.5043 55.0533 54.705 55.294 54.9858C55.5348 55.2667 55.6953 55.5877 55.7755 55.9489C55.8558 56.2699 55.8959 56.6711 55.8959 57.0724V57.7144C55.8959 58.7176 55.6552 59.48 55.1737 60.0016C54.6921 60.5233 53.9297 60.8042 52.8463 60.8042H50.7598V49.4484ZM52.4049 55.5075V59.1189H52.9667C53.2877 59.1189 53.5686 59.0787 53.7291 58.9583C53.9297 58.8781 54.0501 58.7176 54.1705 58.5571C54.2507 58.3966 54.331 58.1959 54.331 57.9552C54.3711 57.7144 54.3711 57.4737 54.3711 57.1928C54.3711 56.5909 54.2909 56.1896 54.0902 55.9088C53.9699 55.7482 53.8495 55.668 53.689 55.5877C53.5285 55.5075 53.2877 55.4674 53.0068 55.4674H52.4049V55.5075Z" fill="#ffffff"/>
<path d="M57.1406 49.4484H61.7953V50.9732H58.7858V54.1031H59.4278C59.9896 54.1031 60.4711 54.1833 60.8322 54.3438C61.1934 54.5043 61.5144 54.705 61.7551 54.9858C61.9959 55.2667 62.1564 55.5877 62.1965 55.9489C62.2768 56.31 62.3169 56.6711 62.3169 57.0724V57.7144C62.3169 58.7176 62.0761 59.48 61.5946 60.0016C61.1131 60.5233 60.3507 60.8042 59.2673 60.8042H57.1406V49.4484ZM58.7858 55.5075V59.1189H59.3877C59.7087 59.1189 59.9896 59.0787 60.1501 58.9583C60.3507 58.8781 60.4711 58.7176 60.5514 58.5571C60.6316 58.3966 60.7119 58.1959 60.7119 57.9552C60.752 57.7144 60.752 57.4737 60.752 57.1928C60.752 56.9119 60.752 56.6712 60.7119 56.4304C60.6717 56.2298 60.5915 56.0291 60.5112 55.9088C60.3908 55.7884 60.2705 55.668 60.11 55.5877C59.9495 55.5075 59.7087 55.4674 59.4278 55.4674H58.7858V55.5075Z" fill="#ffffff"/>
<path d="M63.5996 60.764V49.4484H66.0473C66.4887 49.4484 66.89 49.4886 67.211 49.6089C67.532 49.7293 67.853 49.9299 68.1339 50.2108C68.4148 50.4917 68.6154 50.8528 68.6956 51.2541C68.816 51.6554 68.8561 52.177 68.8561 52.8592C68.8561 53.3808 68.816 53.7821 68.7759 54.1432C68.7358 54.5043 68.5753 54.8253 68.4148 55.1464C68.174 55.5075 67.8931 55.7884 67.532 56.0291C67.1708 56.2298 66.6893 56.3501 66.0874 56.3501H65.2448V60.764H63.5996ZM65.2047 50.9732V54.8253H65.9671C66.2881 54.8253 66.569 54.7852 66.7295 54.6648C66.89 54.5846 67.0505 54.4241 67.1307 54.2636C67.211 54.1031 67.2511 53.9024 67.2912 53.6617C67.2912 53.4209 67.3314 53.1802 67.3314 52.8993C67.3314 52.6184 67.3314 52.3776 67.3314 52.1369C67.3314 51.8961 67.2912 51.6955 67.1708 51.4949C67.0906 51.3344 66.9702 51.1739 66.7696 51.0936C66.6091 51.0134 66.3683 50.9331 66.0473 50.9331H65.2047V50.9732Z" fill="#ffffff"/>
<path d="M70.1003 59.2392C70.2608 59.2392 70.4213 59.2392 70.6219 59.1991C70.8226 59.159 70.9429 59.0787 71.0633 58.9985C71.1436 58.9182 71.2238 58.7978 71.3442 58.5972C71.4646 58.3966 71.5448 58.1558 71.6251 57.7947L71.7856 57.1928L69.3379 49.4484H71.0633L72.5881 54.7852H72.6282L73.832 49.4484H75.5575L73.19 58.0354C73.0295 58.5571 72.869 58.9985 72.7085 59.3997C72.548 59.801 72.3072 60.122 71.9862 60.3628C71.7455 60.5634 71.4646 60.7239 71.1837 60.764C70.9028 60.8042 70.5818 60.8443 70.2608 60.8443H70.02V59.2392H70.1003Z" fill="#ffffff"/>
<path d="M81.4156 57.5144V58.1966C81.4156 58.5577 81.3354 58.8787 81.215 59.1997C81.0946 59.5207 80.894 59.8016 80.6532 60.0424C80.4125 60.2831 80.1316 60.4838 79.8507 60.6041C79.5297 60.7646 79.2087 60.8048 78.8475 60.8048C78.5265 60.8048 78.2457 60.7646 77.9246 60.6844C77.6036 60.6041 77.3228 60.4436 77.082 60.243C76.8412 60.0424 76.6005 59.7615 76.44 59.4405C76.2795 59.1195 76.1992 58.6781 76.1992 58.1564V51.9369C76.1992 51.5757 76.2795 51.2146 76.3998 50.8936C76.5202 50.5726 76.7209 50.2917 76.9215 50.0509C77.1622 49.8102 77.4431 49.6497 77.7641 49.4892C78.0851 49.3688 78.4463 49.2885 78.8475 49.2885C79.6099 49.2885 80.2118 49.5293 80.6934 50.0509C80.9341 50.2917 81.0946 50.5726 81.2551 50.9337C81.3755 51.2547 81.4558 51.6159 81.4558 52.0171V52.6591H79.8507V52.1375C79.8507 51.8165 79.7705 51.5356 79.5698 51.2949C79.4093 51.0541 79.1284 50.9337 78.8475 50.9337C78.4463 50.9337 78.1654 51.0541 78.045 51.2949C77.9246 51.5356 77.8444 51.8566 77.8444 52.2579V58.0361C77.8444 58.3571 77.9246 58.638 78.045 58.8787C78.2055 59.1195 78.4463 59.1997 78.8074 59.1997C78.9278 59.1997 79.0081 59.1997 79.1686 59.1596C79.2889 59.1195 79.4093 59.0793 79.5297 58.959C79.6099 58.8787 79.6902 58.7583 79.7705 58.5978C79.8507 58.4373 79.8507 58.2768 79.8507 58.0361V57.4743H81.4156V57.5144Z" fill="#ffffff"/>
<path d="M82.4199 59.5611V57.9561L84.025 56.351L82.4199 54.746V53.1409L85.63 56.351L82.4199 59.5611ZM85.3491 59.5611V57.9561L86.9542 56.351L85.3491 54.746V53.1409L88.5592 56.351L85.3491 59.5611Z" fill="#ffffff"/>
<path d="M89 45.517H0V46.0788H89V45.517Z" fill="#ffffff"/>
</svg>
